<svg width="49" height="48" viewBox="0 0 49 48" fill="none" xmlns="http://www.w3.org/2000/svg">
<path d="M24.0986 28.4878C26.4987 28.4878 28.4443 26.566 28.4443 24.1952C28.4443 21.8245 26.4987 19.9026 24.0986 19.9026C21.6986 19.9026 19.7529 21.8245 19.7529 24.1952C19.7529 26.566 21.6986 28.4878 24.0986 28.4878Z" fill="black"/>
<path d="M29.5304 13.6586H18.6662C17.086 13.6586 15.7033 14.1464 14.8144 15.0244C13.9255 15.9025 13.4316 17.2683 13.4316 18.8293V29.561C13.4316 31.122 13.9255 32.4878 14.9131 33.4635C15.9008 34.3415 17.1847 34.8293 18.765 34.8293H29.5304C31.1107 34.8293 32.4934 34.3415 33.3823 33.4635C34.3699 32.5854 34.8638 31.2196 34.8638 29.6586V18.9269C34.8638 17.3659 34.3699 16.0976 33.4811 15.122C32.4934 14.1464 31.2094 13.6586 29.5304 13.6586ZM24.0983 30.8293C20.3452 30.8293 17.3823 27.8049 17.3823 24.1952C17.3823 20.4878 20.444 17.561 24.0983 17.561C27.7526 17.561 30.9131 20.4878 30.9131 24.1952C30.9131 27.9025 27.8514 30.8293 24.0983 30.8293ZM31.1107 18.8293C30.2218 18.8293 29.5304 18.1464 29.5304 17.2683C29.5304 16.3903 30.2218 15.7073 31.1107 15.7073C31.9996 15.7073 32.6909 16.3903 32.6909 17.2683C32.6909 18.1464 31.9996 18.8293 31.1107 18.8293Z" fill="black"/>
<path d="M24.2963 0C10.8642 0 0 10.7317 0 24C0 37.2683 10.8642 48 24.2963 48C37.7284 48 48.5926 37.2683 48.5926 24C48.6914 10.7317 37.7284 0 24.2963 0ZM37.2346 29.6585C37.2346 31.9024 36.4445 33.8537 35.0617 35.2195C33.679 36.5854 31.7037 37.2683 29.5309 37.2683H18.7654C16.5926 37.2683 14.6173 36.5854 13.2346 35.2195C11.7531 33.8537 11.0617 31.9024 11.0617 29.6585V18.9268C11.0617 14.439 14.1235 11.3171 18.7654 11.3171H29.6296C31.9012 11.3171 33.7778 12.0976 35.1605 13.4634C36.5432 14.8293 37.2346 16.6829 37.2346 18.9268V29.6585Z" fill="black"/>
</svg>
