<svg width="50" height="50" viewBox="0 0 50 50" fill="none" xmlns="http://www.w3.org/2000/svg">
<path d="M0.757812 25C0.757813 29.7947 2.17961 34.4817 4.8434 38.4684C7.50719 42.455 11.2933 45.5622 15.7231 47.3971C20.1528 49.2319 25.0271 49.712 29.7297 48.7766C34.4323 47.8412 38.7519 45.5323 42.1422 42.142C45.5326 38.7516 47.8415 34.432 48.7769 29.7295C49.7122 25.0269 49.2322 20.1525 47.3973 15.7228C45.5625 11.2931 42.4553 7.50695 38.4686 4.84315C34.482 2.17936 29.7949 0.757568 25.0002 0.757568C18.5707 0.757568 12.4046 3.31167 7.85825 7.85801C3.31192 12.4043 0.757813 18.5705 0.757812 25Z" fill="black"/>
<path d="M36.0001 15.9091H14.0001C13.3809 15.9091 12.8789 16.411 12.8789 17.0303V33.106C12.8789 33.7253 13.3809 34.2272 14.0001 34.2272H36.0001C36.6193 34.2272 37.1213 33.7253 37.1213 33.106V17.0303C37.1213 16.411 36.6193 15.9091 36.0001 15.9091Z" stroke="white" stroke-width="2" stroke-miterlimit="10"/>
<path d="M36.6972 16.5378L28.432 25.4091C27.9885 25.8736 27.4553 26.2434 26.8648 26.496C26.2743 26.7487 25.6387 26.8789 24.9964 26.8789C24.3541 26.8789 23.7185 26.7487 23.128 26.496C22.5375 26.2434 22.0043 25.8736 21.5608 25.4091L13.3032 16.5454" stroke="white" stroke-width="2" stroke-linejoin="round"/>
<path d="M29.6895 24.053L36.4773 33.7196" stroke="white" stroke-width="2" stroke-linejoin="round"/>
<path d="M20.4395 24.1515L13.4092 33.7197" stroke="white" stroke-width="2" stroke-linejoin="round"/>
</svg>
