<svg width="47" height="48" viewBox="0 0 47 48" fill="none" xmlns="http://www.w3.org/2000/svg">
<g clip-path="url(#clip0)">
<path d="M23.5 0C18.8521 0 14.3087 1.40758 10.4441 4.04473C6.57955 6.68188 3.5675 10.4302 1.78884 14.8156C0.0101822 19.201 -0.455196 24.0266 0.451556 28.6822C1.35831 33.3377 3.59647 37.6141 6.883 40.9706C10.1695 44.327 14.3568 46.6128 18.9154 47.5388C23.4739 48.4649 28.199 47.9896 32.4931 46.1731C36.7871 44.3566 40.4573 41.2805 43.0395 37.3337C45.6218 33.3869 47 28.7468 47 24C47 17.6348 44.5241 11.5303 40.117 7.02944C35.7099 2.52856 29.7326 0 23.5 0V0ZM37.2083 31.315C37.0615 32.275 35.5046 32.095 34.1338 32.135C33.1059 32.2223 32.071 32.1293 31.0739 31.86C30.1486 31.49 27.6908 28.185 27.0593 28.31C25.6248 28.61 26.1438 31.655 25.7325 31.86C25.101 32.16 23.1426 32.08 22.374 31.995C18.3447 31.31 16.0094 28.57 13.8356 25.03C11.138 20.725 9.54199 17.53 10.2274 17.105C10.9128 16.68 13.0425 16.79 15.1526 16.83C15.7989 16.855 17.6005 21.53 18.0901 22.33C19.9946 25.44 20.587 23.14 20.6262 22.865C21.1941 17.25 19.8477 17.5 19.0595 17.385C19.6372 15.575 23.7448 15.885 23.7448 15.885C24.3926 16.0382 25.0193 16.2734 25.6101 16.585C25.8108 16.71 26.0409 17.175 26.0263 18.615C25.9479 20.825 25.7276 23.8 26.6823 23.8C27.4069 23.83 28.5476 22.075 29.4876 20.265C30.3052 18.66 30.9564 17.1 31.2207 16.99C32.1945 16.8613 33.1767 16.8112 34.1582 16.84C35.4458 16.84 36.7481 16.84 37.0957 17.115C37.7812 17.72 36.5719 19.615 35.4703 21.23C34.5842 22.545 32.8413 24.26 32.949 25.19C33.0861 26.475 37.5706 29.215 37.2083 31.315Z" fill="black"/>
</g>
<defs>
<clipPath id="clip0">
<rect width="47" height="48" fill="white"/>
</clipPath>
</defs>
</svg>
